<svg xmlns="http://www.w3.org/2000/svg" id="Layer_2" viewBox="0 0 663.99 178.7"><defs><style>.cls-1{fill:#0492C2;}</style></defs><g id="Layer_1-2"><path class="cls-1" d="M104.33,100.45h-14.49l-5.74-11.19c-2.11-3.54-4.78-6.96-8.04-10.26-3.25-3.3-6.87-6.24-10.83-8.83-3.97-2.58-8.13-4.66-12.48-6.24-4.35-1.58-8.64-2.37-12.84-2.37s-7.82.84-11.41,2.51c-3.59,1.67-6.77,4.38-9.54,8.11,2.49-4.5,5.57-7.68,9.26-9.54,3.68-1.87,7.72-2.8,12.13-2.8,3.25,0,6.6.48,10.05,1.44,3.44.96,6.86,2.3,10.26,4.02,3.4,1.72,6.62,3.73,9.69,6.03,3.06,2.3,5.88,4.78,8.47,7.46L46.06,14.35l-31.28,61.85c-1.63,3.35-2.78,6.34-3.44,8.97-.67,2.63-1,4.9-1,6.82,0,2.2.29,3.92.86,5.17.57,1.24,1.19,1.96,1.87,2.15.09.1.24.29.43.57,0,.19.05.38.14.57H0L50.94,0h2.44l50.94,100.45Z"></path><path class="cls-1" d="M138.2,100.45V2.3h-2.73c-7.27,0-12.89.34-16.86,1-3.97.67-7.03,1.51-9.18,2.51-2.15,1-3.71,2.11-4.66,3.3-.96,1.2-2.01,2.37-3.16,3.52-.19.29-.38.43-.57.43h-.43l4.3-13.06h79.65l4.3,13.06h-.43c-.38,0-.57-.14-.57-.43-.57-.57-1.29-1.44-2.15-2.58-.86-1.15-2.42-2.3-4.66-3.44-2.25-1.15-5.5-2.15-9.76-3.01-4.26-.86-10.02-1.29-17.29-1.29h-2.58v98.16h-13.2Z"></path><path class="cls-1" d="M289.31,100.45h-14.49l-5.74-11.19c-2.11-3.54-4.78-6.96-8.04-10.26-3.25-3.3-6.87-6.24-10.83-8.83-3.97-2.58-8.13-4.66-12.48-6.24-4.35-1.58-8.64-2.37-12.84-2.37s-7.82.84-11.41,2.51c-3.59,1.67-6.77,4.38-9.54,8.11,2.49-4.5,5.57-7.68,9.26-9.54,3.68-1.87,7.72-2.8,12.13-2.8,3.25,0,6.6.48,10.05,1.44,3.44.96,6.86,2.3,10.26,4.02,3.4,1.72,6.62,3.73,9.69,6.03,3.06,2.3,5.88,4.78,8.47,7.46L231.04,14.35l-31.28,61.85c-1.63,3.35-2.78,6.34-3.44,8.97-.67,2.63-1,4.9-1,6.82,0,2.2.29,3.92.86,5.17.57,1.24,1.19,1.96,1.87,2.15.09.1.24.29.43.57,0,.19.05.38.14.57h-13.63L235.92,0h2.44l50.94,100.45Z"></path><path class="cls-1" d="M373.26,100.45h-67.02V0h13.2v98.16h18.66c6.6,0,12.24-.33,16.93-1,4.69-.67,8.56-1.48,11.62-2.44,3.06-.96,5.36-1.91,6.89-2.87,1.53-.96,2.39-1.72,2.58-2.3.29-.29.52-.43.72-.43h.43l-4.02,11.34Z"></path><path class="cls-1" d="M491.36,100.45h-14.49l-5.74-11.19c-2.11-3.54-4.78-6.96-8.04-10.26-3.25-3.3-6.87-6.24-10.83-8.83-3.97-2.58-8.13-4.66-12.48-6.24-4.35-1.58-8.64-2.37-12.84-2.37s-7.82.84-11.41,2.51c-3.59,1.67-6.77,4.38-9.54,8.11,2.49-4.5,5.57-7.68,9.26-9.54,3.68-1.87,7.72-2.8,12.13-2.8,3.25,0,6.6.48,10.05,1.44,3.44.96,6.86,2.3,10.26,4.02,3.4,1.72,6.62,3.73,9.69,6.03,3.06,2.3,5.88,4.78,8.47,7.46l-32.72-64.43-31.28,61.85c-1.63,3.35-2.78,6.34-3.44,8.97-.67,2.63-1,4.9-1,6.82,0,2.2.29,3.92.86,5.17.57,1.24,1.19,1.96,1.87,2.15.09.1.24.29.43.57,0,.19.05.38.14.57h-13.63L437.97,0h2.44l50.94,100.45Z"></path><path class="cls-1" d="M517.91,57.11L479.74,0h15.79l35.01,51.66,21.68-29.85c3.06-4.21,5.17-7.65,6.31-10.33,1.15-2.68,1.72-4.83,1.72-6.46,0-1.15-.22-2.03-.65-2.65-.43-.62-.93-1.03-1.51-1.22-.29,0-.43-.19-.43-.57v-.57h13.63l-40.18,54.39v46.06h-13.2v-43.34Z"></path><path class="cls-1" d="M663.99,100.45h-14.49l-5.74-11.19c-2.11-3.54-4.78-6.96-8.04-10.26-3.25-3.3-6.87-6.24-10.83-8.83-3.97-2.58-8.13-4.66-12.48-6.24-4.35-1.58-8.64-2.37-12.84-2.37s-7.82.84-11.41,2.51c-3.59,1.67-6.77,4.38-9.54,8.11,2.49-4.5,5.57-7.68,9.26-9.54,3.68-1.87,7.72-2.8,12.13-2.8,3.25,0,6.6.48,10.05,1.44,3.44.96,6.86,2.3,10.26,4.02,3.4,1.72,6.62,3.73,9.69,6.03,3.06,2.3,5.88,4.78,8.47,7.46l-32.72-64.43-31.28,61.85c-1.63,3.35-2.78,6.34-3.44,8.97-.67,2.63-1,4.9-1,6.82,0,2.2.29,3.92.86,5.17.57,1.24,1.19,1.96,1.87,2.15.09.1.24.29.43.57,0,.19.05.38.14.57h-13.63L610.61,0h2.44l50.94,100.45Z"></path><path class="cls-1" d="M200.43,178.41l-9.59-13.44c-1.26.17-2.53.29-3.9.29h-11.48v13.15h-2.93v-40.19h14.41c10.11,0,16.19,5.05,16.19,13.55,0,6.37-3.45,10.79-9.42,12.57l10.05,14.07h-3.33ZM186.94,162.68c8.61,0,13.21-4.02,13.21-10.91s-4.59-10.91-13.21-10.91h-11.48v21.82h11.48Z"></path><path class="cls-1" d="M270.31,175.77v2.64h-27.73v-40.19h26.87v2.64h-23.94v15.85h21.42v2.58h-21.42v16.48h24.8Z"></path><path class="cls-1" d="M305.63,173.24l1.32-2.18c2.76,2.87,7.87,5.05,13.26,5.05,8.04,0,11.6-3.5,11.6-7.87,0-12.06-25.09-4.82-25.09-19.64,0-5.68,4.36-10.68,14.24-10.68,4.42,0,9.01,1.38,12.12,3.62l-1.09,2.35c-3.33-2.3-7.41-3.39-11.02-3.39-7.81,0-11.31,3.62-11.31,8.04,0,12.06,25.09,4.94,25.09,19.52,0,5.68-4.54,10.62-14.47,10.62-5.97,0-11.71-2.24-14.64-5.45Z"></path><path class="cls-1" d="M369.54,158.31c0-11.66,8.9-20.38,20.9-20.38s20.9,8.67,20.9,20.38-8.96,20.38-20.9,20.38-20.9-8.73-20.9-20.38ZM408.36,158.31c0-10.16-7.69-17.69-17.91-17.69s-17.97,7.52-17.97,17.69,7.69,17.69,17.97,17.69,17.91-7.52,17.91-17.69Z"></path><path class="cls-1" d="M478.12,178.41l-9.59-13.44c-1.26.17-2.53.29-3.9.29h-11.48v13.15h-2.93v-40.19h14.41c10.11,0,16.19,5.05,16.19,13.55,0,6.37-3.45,10.79-9.42,12.57l10.05,14.07h-3.33ZM464.63,162.68c8.61,0,13.21-4.02,13.21-10.91s-4.59-10.91-13.21-10.91h-11.48v21.82h11.48Z"></path><path class="cls-1" d="M527.39,140.86h-14.47v-2.64h31.87v2.64h-14.47v37.55h-2.93v-37.55Z"></path></g></svg>