<svg viewBox="0 0 523 123" xmlns="http://www.w3.org/2000/svg" id="Layer_1">
  <defs>
    <style>
      .cls-1 {
        fill: #fdd745;
      }

      .cls-2 {
        fill: #48a7da;
      }

      .cls-3 {
        fill: #f38a9a;
      }

      .cls-4 {
        fill: #53be92;
      }

      .cls-5 {
        fill: #f78f48;
      }
    </style>
  </defs>
  <path d="M355.64105,40.12455h2.77378c1.90917,0,3.45685,1.54768,3.45685,3.45685v10.0334c0,1.61903,2.03907,2.33386,3.04998,1.06922l10.60052-13.26106c.65599-.82063,1.64957-1.29841,2.70017-1.29841h2.87729c2.91247,0,4.51958,3.38103,2.68063,5.63952l-10.14968,12.46523c-.99777,1.2254-1.03756,2.9714-.09664,4.24097l11.31355,15.26539c1.69073,2.2813.06226,5.51515-2.77727,5.51515h-3.42752c-1.11181,0-2.15576-.53475-2.80538-1.43703l-7.70343-10.69949c-1.29032-1.79215-3.90724-1.93144-5.3805-.28638l-.44495.49684c-.28126.31405-.43678.72083-.43678,1.14241v7.3268c0,1.90917-1.54768,3.45685-3.45685,3.45685h-2.77378c-1.90917,0-3.45685-1.54768-3.45685-3.45685v-36.21257c0-1.90917,1.54768-3.45685,3.45685-3.45685Z" class="cls-4"></path>
  <path d="M55.1837,40.12455h2.06802c.77495,0,1.47451.4642,1.77565,1.17825l16.56222,39.27207c.53574,1.27035-.39695,2.67594-1.77565,2.67594h-.12542c-.7772,0-1.47832-.46686-1.77804-1.18394l-3.9477-9.44506c-.29971-.71708-1.00084-1.18394-1.77804-1.18394h-20.05948c-.7772,0-1.47832.46686-1.77804,1.18394l-3.9477,9.44506c-.29971.71708-1.00084,1.18394-1.77804,1.18394h0c-1.3787,0-2.31139-1.4056-1.77565-2.67594l16.56222-39.27207c.30114-.71405,1.0007-1.17825,1.77565-1.17825ZM65.47425,66.68973l-8.52885-20.47985c-.29265-.70272-1.28816-.70272-1.58081,0l-8.52885,20.47985c-.23486.56395.1795,1.18537.7904,1.18537h17.0577c.6109,0,1.02526-.62142.7904-1.18537Z" class="cls-2"></path>
  <path d="M75.30103,51.37478h0c.7235,0,1.36893.4547,1.61247,1.13597l8.96327,25.07304c.17141.47948.84854.48218,1.02376.00408l8.98981-24.52839c.37087-1.01191,1.334-1.6847,2.41173-1.6847h.22182c1.07891,0,2.04283.67424,2.41284,1.68772l8.88377,24.33349c.1905.52181.92928.51958,1.11663-.00337l8.91454-24.88298c.24387-.6807.88901-1.13487,1.61208-1.13487h0c1.35245,0,2.2888,1.35053,1.81449,2.61707l-10.33286,27.5912c-.37566,1.00309-1.33434,1.66777-2.40546,1.66777h-.29812c-1.07841,0-2.04199-.67361-2.41237-1.68642l-8.70478-23.80337c-.2741-.74952-1.33415-.74952-1.60824,0l-8.70478,23.80337c-.37038,1.01281-1.33396,1.68642-2.41237,1.68642h-.29812c-1.07113,0-2.02981-.66468-2.40546-1.66777l-10.28947-27.47535c-.49532-1.32261.48249-2.73292,1.89481-2.73292Z" class="cls-2"></path>
  <path d="M125.27843,67.31238c0-9.50019,6.93743-16.68762,16.18845-16.68762,6.1247,0,11.06209,3.12548,13.74943,8.06287v-5.60044c0-.94574.76667-1.71241,1.71241-1.71241h.20067c.94574,0,1.71241.76667,1.71241,1.71241v28.45123c0,.94574-.76667,1.71241-1.71241,1.71241h-.20067c-.94574,0-1.71241-.76667-1.71241-1.71241v-5.60044c-2.68734,4.93739-7.62473,8.06203-13.74943,8.06203-9.25102,0-16.18845-7.18743-16.18845-16.68762ZM155.21397,67.5755c.12493-7.09052-5.49477-13.18029-12.5816-13.44069-7.7039-.28308-13.60386,5.49666-13.60386,13.17757,0,7.50015,5.62553,13.18755,13.06297,13.18755,7.41219,0,12.99265-5.55478,13.1225-12.92443Z" class="cls-2"></path>
  <path d="M169.57445,38.24994h.20067c.94574,0,1.71241.76667,1.71241,1.71241v29.7255l17.74965-17.56996c.48094-.47607,1.13031-.74311,1.80702-.74311h0c1.33743,0,2.00573,1.61835,1.05798,2.56201l-11.80178,11.75098,12.31672,14.54259c1.00976,1.19225.16235,3.02046-1.40005,3.02046h0c-.50237,0-.97939-.2206-1.30475-.60337l-12.23739-14.39693-6.18741,6.18741v7.10047c0,.94574-.76667,1.71241-1.71241,1.71241h0c-1.05656,0-1.91308-.85651-1.91308-1.91308v-41.3754c0-.94574.76667-1.71241,1.71241-1.71241Z" class="cls-2"></path>
  <path d="M195.80072,67.31238c0-9.50019,7.25014-16.68762,16.81304-16.68762,9.62477,0,16.87491,7.18743,16.87491,16.68762h0c-.00102.82874-.67313,1.50003-1.50188,1.50003h-26.32983c-1.11637,0-1.94426,1.05507-1.66551,2.13608,1.47989,5.73922,6.45292,9.67687,12.87231,9.67687,5.01544,0,9.37851-2.39471,11.56456-6.06647.3023-.50775.85823-.80825,1.44915-.80825h0c1.45547.00005,2.36647,1.62525,1.55821,2.83567-3.02359,4.52806-8.41379,7.41369-14.63463,7.41369-9.75019,0-17.00033-7.18743-17.00033-16.68762ZM201.70165,65.56233h22.98762c.53758,0,.9403-.48992.84568-1.01911-1.05487-5.89946-6.1209-10.54381-12.92118-10.54381-6.11517,0-10.99349,3.80716-12.5694,9.39843-.30618,1.08631.52866,2.16449,1.65729,2.16449Z" class="cls-2"></path>
  <path d="M236.20286,51.37478h.19983c.94574,0,1.71241.76668,1.7124,1.71242v2.25623c-.00002.54975.69867.80784,1.03815.37543,2.54749-3.24486,6.4921-5.09409,11.33752-5.09409,8.00016,0,13.37485,5.2501,13.37485,13.31297v17.60068c0,.94574-.76667,1.71241-1.71241,1.71241h-.19984c-.94574,0-1.71241-.76667-1.71241-1.71241v-16.53879c0-6.562-4.31279-10.8748-10.81292-10.8748-6.75013,0-11.31293,4.37467-11.31293,11.00022v16.68164c0,.79757-.64656,1.44413-1.44413,1.44413h-.73638c-.79757,0-1.44413-.64656-1.44413-1.44413v-28.7195c0-.94574.76667-1.71241,1.71241-1.71241Z" class="cls-2"></path>
  <path d="M269.92927,67.31238c0-9.50019,7.25014-16.68762,16.81304-16.68762,9.62477,0,16.87491,7.18743,16.87491,16.68762h0c-.00102.82502-.67686,1.50003-1.50188,1.50003h-26.32987c-1.11637,0-1.94426,1.05507-1.66551,2.13608,1.47991,5.73922,6.45295,9.67687,12.87235,9.67687,5.01532,0,9.37829-2.39459,11.56428-6.06626.30236-.50785.85839-.80843,1.44943-.80843h.24155c1.35085,0,2.18174,1.49881,1.44925,2.63382-2.99701,4.64396-8.45442,7.61553-14.76722,7.61553-9.75019,0-17.00033-7.18743-17.00033-16.68762ZM275.83012,65.56234h22.98783c.53759,0,.94031-.48992.84567-1.01912-1.05498-5.89944-6.12102-10.54381-12.92132-10.54381-6.11518,0-10.9935,3.80717-12.56947,9.39843-.30619,1.08631.52865,2.1645,1.65729,2.1645Z" class="cls-2"></path>
  <path d="M309.11901,67.31238c0-9.50019,6.93743-16.68762,16.18761-16.68762,6.12554,0,11.06293,3.12548,13.75027,8.06287v-18.72528c0-.94574.76667-1.71241,1.71241-1.71241h.19984c.94574,0,1.71241.76667,1.71241,1.71241v41.57607c0,.94574-.76667,1.71241-1.71241,1.71241h-.19984c-.94574,0-1.71241-.76667-1.71241-1.71241v-5.60044c-2.68734,4.93739-7.62473,8.06203-13.75027,8.06203-9.25018,0-16.18761-7.18743-16.18761-16.68762ZM339.05457,67.57426c.12435-7.0909-5.49665-13.18026-12.5839-13.43954-7.70369-.28182-13.60159,5.49752-13.60159,13.17766,0,7.50015,5.62469,13.18755,13.06297,13.18755,7.4126,0,12.99328-5.55541,13.12252-12.92567Z" class="cls-2"></path>
  <path d="M389.81717,41.85069c-.01853-3.0963,2.37726-5.5287,5.47282-5.59904,3.32568-.07557,5.8394,2.32263,5.83997,5.55911.00055,3.08612-2.40308,5.52829-5.48773,5.62355-3.2718.10104-5.80533-2.28608-5.82506-5.58361ZM394.30459,51.37478h2.27513c1.89147,0,3.42482,1.53334,3.42482,3.42482v25.02641c0,1.89147-1.53334,3.42482-3.42482,3.42482h-2.27513c-1.89147,0-3.42482-1.53334-3.42482-3.42482v-25.02641c0-1.89147,1.53334-3.42482,3.42482-3.42482Z" class="cls-1"></path>
  <path d="M405.50464,67.31238c0-9.50019,6.62555-16.68762,15.37572-16.68762,3.87549,0,7.18743,1.43732,9.62477,3.93737v-12.88738c0-1.89147,1.53334-3.42482,3.42482-3.42482h2.27596c1.89147,0,3.42482,1.53334,3.42482,3.42482v38.15125c0,1.89147-1.53334,3.42482-3.42482,3.42482h-3.13217c-1.41861,0-2.56861-1.15001-2.56861-2.56861v-.61958c-2.43734,2.50005-5.74928,3.93737-9.62477,3.93737-8.75017,0-15.37572-7.18743-15.37572-16.68762ZM430.50512,67.31426c.00089-4.41146-3.39405-7.8733-7.8055-7.87659-4.44065-.00331-7.75666,3.37243-7.75666,7.87471,0,4.50009,3.31277,7.87557,7.75015,7.87557,4.49946,0,7.8111-3.37454,7.81201-7.8737Z" class="cls-5"></path>
  <path d="M449.9012,73.5625h2.07221c1.14798,0,2.29346.49244,2.92327,1.45223.69962,1.0662,2.19187,1.73596,4.06721,1.73596,2.31275,0,4.00008-1.06273,4.00008-2.50005,0-4.68822-17.12576-1.81274-17.12576-13.31297,0-6.75013,5.6874-10.31291,12.68754-10.31291,4.85328,0,8.7948,1.72156,11.01924,4.45572,1.80396,2.21732.16195,5.54448-2.6965,5.54448h-2.09002c-1.06364,0-2.10481-.46594-2.71247-1.33891-.63847-.91723-1.95563-1.47386-3.58211-1.47386-2.06275,0-3.62549.93815-3.62549,2.37546,0,4.50009,17.18763,1.75003,17.18763,13.12484,0,6.37554-5.31198,10.6875-13.06213,10.6875-5.42943,0-9.68665-2.00919-11.91405-5.11385-1.59412-2.22195.11672-5.32364,2.85137-5.32364Z" class="cls-3"></path>
</svg>