<svg xmlns="http://www.w3.org/2000/svg" viewBox="0 0 200 70"><defs><style>.cls-1{fill:#006ac6;}.cls-2{fill:#97999b;}.cls-3{fill:none;}</style></defs><g id="Layer_2" data-name="Layer 2"><g id="Layer_1-2" data-name="Layer 1"><path class="cls-1" d="M41.57,26.93a4.34,4.34,0,0,1,.34,1.58c0,.71.07,2.84.09,3.46.7,0,1.62-.09,2.24-.09s2.64,0,5.62-.1h.19a2.69,2.69,0,0,0,2.82-2.55c.21-2-.87-2.45-.92-2.47a10.89,10.89,0,0,0-4.4-.78l-.72,0A29.32,29.32,0,0,0,41.57,26.93Z"/><path class="cls-1" d="M38.22,24.66a4.43,4.43,0,0,1,1.2.31,4.68,4.68,0,0,1,1.48.89,27,27,0,0,1,5.63-1.08c.37,0,.75,0,1.12,0a13.9,13.9,0,0,1,4,.54,7,7,0,0,0,.62-.56A2.91,2.91,0,0,0,53,23.25,3.17,3.17,0,0,0,52.67,21c-.34-.65-1.23-1-2.64-1H49.4q-.42,0-.93,0a13.87,13.87,0,0,0-4.8.89A16.47,16.47,0,0,0,38.22,24.66Z"/><path class="cls-1" d="M31.54,24.57a5.12,5.12,0,0,1,1.91.35A5,5,0,0,1,34.84,26a3.69,3.69,0,0,1,.47-.54,3.44,3.44,0,0,1,1.08-.63c.48-.53,1.39-1.51,2.31-2.35a15.85,15.85,0,0,1,5.9-3.32,14,14,0,0,1,4.23-.55,19,19,0,0,1,2.16.11,3.65,3.65,0,0,0,1.55-2.63c0-2.15-.82-2.66-4.44-2.83A17.47,17.47,0,0,0,36.54,17.4,19,19,0,0,0,31.54,24.57Z"/><path class="cls-1" d="M46.92,33.06c0,.62.09,1.6.09,2.24,0,.86.07,3.91.09,5.21l0,.61a2.69,2.69,0,0,0,2.55,2.82l.47,0c1.59,0,2-.93,2-.94a11.53,11.53,0,0,0,.77-5.12A29,29,0,0,0,52,32.64a4.34,4.34,0,0,1-1.58.34Z"/><path class="cls-1" d="M53.62,42.69a5.34,5.34,0,0,0,.56.62,2.87,2.87,0,0,0,1.46.74,3.65,3.65,0,0,0,.77.09,3.2,3.2,0,0,0,1.52-.4c.65-.35,1-1.23,1-2.64,0-.17,0-.36,0-.57v-.06a13.91,13.91,0,0,0-.87-5.73,16.22,16.22,0,0,0-3.83-5.45,4.09,4.09,0,0,1-.31,1.2A4.68,4.68,0,0,1,53,32a27.27,27.27,0,0,1,1.09,5.63A14.77,14.77,0,0,1,53.62,42.69Z"/><path class="cls-1" d="M60.18,42.06a3.57,3.57,0,0,0,2.58,1.55c2.19,0,2.7-.82,2.88-4.44a17.6,17.6,0,0,0-4.15-11.56,19,19,0,0,0-7.17-5A4.89,4.89,0,0,1,54,24.52a5,5,0,0,1-1.08,1.39,3.67,3.67,0,0,1,.54.46,3.41,3.41,0,0,1,.63,1.09c.43.39,1.47,1.34,2.36,2.31a15.75,15.75,0,0,1,3.31,5.9A17.91,17.91,0,0,1,60.18,42.06Z"/><path class="cls-1" d="M45.86,38c-.53,0-1.57.09-2.24.09s-2.48,0-5.51.1h-.3A2.69,2.69,0,0,0,35,40.78c-.21,2,.87,2.44.91,2.46A11.57,11.57,0,0,0,41,44a28.16,28.16,0,0,0,5.25-.93A4.6,4.6,0,0,1,46,41.49c0-.46-.05-1.62-.09-3.44Z"/><path class="cls-1" d="M36.23,44.73a5.89,5.89,0,0,0-.61.56,2.88,2.88,0,0,0-.75,1.46A3.17,3.17,0,0,0,35.19,49c.34.65,1.23,1,2.63,1l.61,0,1,0a13.66,13.66,0,0,0,4.8-.89,16.27,16.27,0,0,0,5.44-3.83A4.11,4.11,0,0,1,48.44,45,4.56,4.56,0,0,1,47,44.14a27.12,27.12,0,0,1-5.63,1.09c-.37,0-.75,0-1.13,0A14.39,14.39,0,0,1,36.23,44.73Z"/><path class="cls-1" d="M36.87,51.29a3.57,3.57,0,0,0-1.55,2.62c0,2.15.82,2.66,4.44,2.84h.63A17.87,17.87,0,0,0,51.32,52.6a19.05,19.05,0,0,0,5-7.17A3.9,3.9,0,0,1,53,44a3.64,3.64,0,0,1-.47.54,3.34,3.34,0,0,1-1.08.63c-.32.35-1.3,1.43-2.31,2.36a15.89,15.89,0,0,1-5.9,3.31A14,14,0,0,1,39,51.4C38,51.4,37.17,51.32,36.87,51.29Z"/><path class="cls-1" d="M37.68,26.07c-1.57,0-2,.91-2,.95a11.53,11.53,0,0,0-.77,5.12,28.57,28.57,0,0,0,.94,5.25,4.37,4.37,0,0,1,1.58-.33c.34,0,1.21,0,3.46-.09,0-.5-.09-1.56-.09-2.24s0-2.57-.1-5.62v-.2a2.69,2.69,0,0,0-2.55-2.81A3.87,3.87,0,0,0,37.68,26.07Z"/><path class="cls-1" d="M31.42,25.89a3.21,3.21,0,0,0-1.52.41c-.65.34-1,1.23-1,2.63,0,.19,0,.4,0,.64a13.75,13.75,0,0,0,.87,5.73,16.38,16.38,0,0,0,3.83,5.44,4.11,4.11,0,0,1,.31-1.19,4.44,4.44,0,0,1,.89-1.48,27,27,0,0,1-1.09-5.63,14.84,14.84,0,0,1,.5-5.1,5.4,5.4,0,0,0-.56-.61A2.88,2.88,0,0,0,32.19,26,3.65,3.65,0,0,0,31.42,25.89Z"/><path class="cls-1" d="M25,26.43c-2.15,0-2.66.82-2.84,4.44a17.58,17.58,0,0,0,4.15,11.56,19.21,19.21,0,0,0,7.17,5,5,5,0,0,1,.35-1.91,5,5,0,0,1,1.07-1.39,3.6,3.6,0,0,1-.53-.47,3.36,3.36,0,0,1-.63-1.09c-.43-.38-1.48-1.34-2.36-2.31a15.79,15.79,0,0,1-3.31-5.89A17.91,17.91,0,0,1,27.65,28a3.49,3.49,0,0,0-2.58-1.55Z"/><path class="cls-1" d="M96.7,19.84a9.81,9.81,0,0,1,3.65.65,8.39,8.39,0,0,1,2.79,1.8,7.72,7.72,0,0,1,1.77,2.64,8.45,8.45,0,0,1,.62,3.23,9.15,9.15,0,0,1-1.12,4.61,7.11,7.11,0,0,1-3.66,3v.08a5.19,5.19,0,0,1,2,1,5.82,5.82,0,0,1,1.31,1.65,7.85,7.85,0,0,1,.74,2.09,17.77,17.77,0,0,1,.32,2.29c0,.48,0,1,.08,1.69s.08,1.31.15,2a12.37,12.37,0,0,0,.34,1.92,4.25,4.25,0,0,0,.7,1.55H99.78a11.47,11.47,0,0,1-.67-3.43c-.09-1.32-.22-2.59-.38-3.8a6,6,0,0,0-1.44-3.46,4.9,4.9,0,0,0-3.59-1.1H87.06V50H80.43V19.84ZM94.33,33.49a5,5,0,0,0,3.42-1,4.19,4.19,0,0,0,1.14-3.29A4,4,0,0,0,97.75,26a5,5,0,0,0-3.42-1H87.06v8.5Z"/><path class="cls-1" d="M125.23,19.84,136.51,50h-6.88l-2.28-6.72H116.07L113.7,50H107l11.41-30.17Zm.38,18.5-3.8-11.07h-.08L117.8,38.34Z"/><path class="cls-1" d="M144.58,19.84v12.5l11.79-12.5h8.28L152.86,31.75,165.79,50h-8.32l-9.09-13.57-3.8,3.85V50H138V19.84Z"/><path class="cls-2" d="M82.08,56.3v7H80.54v-7Z"/><path class="cls-2" d="M83.37,59.72a2.31,2.31,0,0,1,.47-.84,2.16,2.16,0,0,1,.77-.56,2.54,2.54,0,0,1,1.06-.21,2.47,2.47,0,0,1,1.06.21,2.07,2.07,0,0,1,.77.56,2.31,2.31,0,0,1,.47.84,3.19,3.19,0,0,1,.16,1,3.15,3.15,0,0,1-.16,1,2.31,2.31,0,0,1-.47.84,2.19,2.19,0,0,1-.77.56,2.64,2.64,0,0,1-1.06.2,2.71,2.71,0,0,1-1.06-.2,2.28,2.28,0,0,1-.77-.56,2.31,2.31,0,0,1-.47-.84,3.44,3.44,0,0,1-.16-1A3.49,3.49,0,0,1,83.37,59.72Zm.85,1.86a1.73,1.73,0,0,0,.33.6,1.67,1.67,0,0,0,.51.37,1.58,1.58,0,0,0,.61.12,1.46,1.46,0,0,0,1.12-.49,1.92,1.92,0,0,0,.34-.6,2.83,2.83,0,0,0,0-1.63,2.1,2.1,0,0,0-.34-.61,1.46,1.46,0,0,0-1.12-.49,1.58,1.58,0,0,0-.61.12,1.67,1.67,0,0,0-.51.37,1.88,1.88,0,0,0-.33.61,2.62,2.62,0,0,0,0,1.63Z"/><path class="cls-2" d="M87.94,57.59V56.3h5.73v1.29h-2.1v5.7H90v-5.7Z"/><path class="cls-2" d="M98.18,56.3l2.21,5.87,2.21-5.87h1.27v7H103V57.47h0l-2.18,5.82H100l-2.18-5.82h0v5.82h-.88v-7Z"/><path class="cls-2" d="M109.8,63.27a1.14,1.14,0,0,1-.6.13.71.71,0,0,1-.51-.18.79.79,0,0,1-.19-.6,2,2,0,0,1-.8.6,2.68,2.68,0,0,1-1,.18,2.75,2.75,0,0,1-.65-.08,1.51,1.51,0,0,1-.53-.24,1.2,1.2,0,0,1-.36-.44A1.45,1.45,0,0,1,105,62a1.49,1.49,0,0,1,.15-.71,1.16,1.16,0,0,1,.38-.44,1.74,1.74,0,0,1,.55-.26l.63-.15c.23,0,.45-.08.65-.1a3.63,3.63,0,0,0,.55-.1.81.81,0,0,0,.37-.19.45.45,0,0,0,.14-.35.82.82,0,0,0-.11-.44.65.65,0,0,0-.26-.26,1.09,1.09,0,0,0-.36-.12,2.75,2.75,0,0,0-.4,0,1.69,1.69,0,0,0-.88.2.83.83,0,0,0-.38.76h-.84a1.88,1.88,0,0,1,.2-.8,1.57,1.57,0,0,1,.47-.52,1.92,1.92,0,0,1,.67-.29,3.47,3.47,0,0,1,.81-.09,5.06,5.06,0,0,1,.68,0,1.69,1.69,0,0,1,.61.2,1.13,1.13,0,0,1,.44.43,1.36,1.36,0,0,1,.17.71v2.6a2.24,2.24,0,0,0,0,.43c0,.09.1.13.23.13a.87.87,0,0,0,.26,0Zm-1.35-2.59a1.3,1.3,0,0,1-.41.17l-.54.09-.56.07a2.36,2.36,0,0,0-.51.14,1,1,0,0,0-.37.28.81.81,0,0,0-.14.49.72.72,0,0,0,.08.35.8.8,0,0,0,.22.23,1,1,0,0,0,.31.13,2.13,2.13,0,0,0,.37,0,1.93,1.93,0,0,0,.71-.11,1.43,1.43,0,0,0,.47-.28,1.07,1.07,0,0,0,.28-.37.92.92,0,0,0,.09-.38Z"/><path class="cls-2" d="M114.3,63.29v-.68h0a1.23,1.23,0,0,1-.65.6,2.37,2.37,0,0,1-1,.19,2.19,2.19,0,0,1-1-.22,2.06,2.06,0,0,1-.73-.57,2.53,2.53,0,0,1-.43-.85,3.38,3.38,0,0,1-.15-1,3.75,3.75,0,0,1,.14-1,2.57,2.57,0,0,1,.43-.84,2.06,2.06,0,0,1,.73-.57,2.31,2.31,0,0,1,1-.21,2.12,2.12,0,0,1,.42,0,2.54,2.54,0,0,1,.45.13,1.86,1.86,0,0,1,.43.25,1.51,1.51,0,0,1,.34.37h0V56.3h.83v7Zm-3-1.8a1.81,1.81,0,0,0,.29.61,1.44,1.44,0,0,0,.49.42,1.54,1.54,0,0,0,.7.15,1.41,1.41,0,0,0,.71-.16,1.36,1.36,0,0,0,.48-.44,1.61,1.61,0,0,0,.27-.61,2.74,2.74,0,0,0,.08-.7,2.94,2.94,0,0,0-.08-.72,1.79,1.79,0,0,0-.28-.61,1.37,1.37,0,0,0-.5-.42A1.72,1.72,0,0,0,112,59a1.41,1.41,0,0,0-.47.44,2.08,2.08,0,0,0-.25.63,3.45,3.45,0,0,0-.08.72A2.61,2.61,0,0,0,111.3,61.49Z"/><path class="cls-2" d="M120,63a2.29,2.29,0,0,1-1.43.43,2.64,2.64,0,0,1-1.06-.2,2.15,2.15,0,0,1-.75-.55,2.26,2.26,0,0,1-.45-.84,3.92,3.92,0,0,1-.17-1.06,3.23,3.23,0,0,1,.17-1.06,2.71,2.71,0,0,1,.5-.84,2.25,2.25,0,0,1,.75-.54,2.32,2.32,0,0,1,1-.2,2,2,0,0,1,1.12.28,2.19,2.19,0,0,1,.71.71,2.86,2.86,0,0,1,.38.94,4.7,4.7,0,0,1,.08,1h-3.79a1.88,1.88,0,0,0,.08.63,1.42,1.42,0,0,0,.28.53,1.45,1.45,0,0,0,.5.37,1.73,1.73,0,0,0,.71.13,1.45,1.45,0,0,0,.87-.24,1.15,1.15,0,0,0,.45-.74h.82A2.07,2.07,0,0,1,120,63Zm-.21-3.25a1.31,1.31,0,0,0-.3-.46,1.37,1.37,0,0,0-.45-.3,1.32,1.32,0,0,0-.57-.11,1.34,1.34,0,0,0-.58.11,1.21,1.21,0,0,0-.45.31,1.62,1.62,0,0,0-.42,1H120A1.71,1.71,0,0,0,119.82,59.72Z"/><path class="cls-2" d="M129,56.3v.78h-3.9v2.23h3.63v.78H125.1v2.42H129v.78h-4.86v-7Z"/><path class="cls-2" d="M134.55,63.27a1.16,1.16,0,0,1-.6.13.69.69,0,0,1-.51-.18.79.79,0,0,1-.2-.6,1.9,1.9,0,0,1-.79.6,2.72,2.72,0,0,1-1,.18,2.75,2.75,0,0,1-.65-.08,1.43,1.43,0,0,1-.53-.24,1.2,1.2,0,0,1-.36-.44,1.45,1.45,0,0,1-.13-.65,1.63,1.63,0,0,1,.14-.71,1.28,1.28,0,0,1,.39-.44,1.64,1.64,0,0,1,.55-.26q.31-.09.63-.15c.23,0,.45-.08.65-.1a3.63,3.63,0,0,0,.55-.1.81.81,0,0,0,.37-.19.45.45,0,0,0,.14-.35.82.82,0,0,0-.11-.44.72.72,0,0,0-.26-.26,1.09,1.09,0,0,0-.36-.12,2.75,2.75,0,0,0-.4,0,1.69,1.69,0,0,0-.88.2.83.83,0,0,0-.38.76H130a1.88,1.88,0,0,1,.2-.8,1.47,1.47,0,0,1,.47-.52,1.92,1.92,0,0,1,.67-.29,3.47,3.47,0,0,1,.81-.09,5.19,5.19,0,0,1,.68,0,1.75,1.75,0,0,1,.61.2,1.13,1.13,0,0,1,.44.43,1.36,1.36,0,0,1,.17.71v2.6a2.24,2.24,0,0,0,0,.43c0,.09.1.13.23.13a.92.92,0,0,0,.26,0Zm-1.35-2.59a1.36,1.36,0,0,1-.42.17l-.53.09-.56.07a2.36,2.36,0,0,0-.51.14,1,1,0,0,0-.37.28.81.81,0,0,0-.14.49.72.72,0,0,0,.08.35.8.8,0,0,0,.22.23,1,1,0,0,0,.31.13,2.13,2.13,0,0,0,.37,0,1.84,1.84,0,0,0,.7-.11,1.38,1.38,0,0,0,.48-.28,1.07,1.07,0,0,0,.28-.37.92.92,0,0,0,.09-.38Z"/><path class="cls-2" d="M136,62.16a.89.89,0,0,0,.31.3,1.23,1.23,0,0,0,.43.16,2.07,2.07,0,0,0,.5.05l.41,0a2.34,2.34,0,0,0,.4-.11.74.74,0,0,0,.29-.23.61.61,0,0,0,.12-.39.55.55,0,0,0-.24-.49,2.29,2.29,0,0,0-.61-.27c-.25-.07-.52-.13-.8-.18a4.42,4.42,0,0,1-.8-.24,1.5,1.5,0,0,1-.61-.43,1.06,1.06,0,0,1-.25-.76,1.3,1.3,0,0,1,.17-.66,1.42,1.42,0,0,1,.44-.44,2.08,2.08,0,0,1,.61-.26,3.14,3.14,0,0,1,.67-.08,4.74,4.74,0,0,1,.79.07,1.89,1.89,0,0,1,.65.26,1.31,1.31,0,0,1,.44.49,1.85,1.85,0,0,1,.2.77h-.83a.94.94,0,0,0-.13-.41.78.78,0,0,0-.28-.26,1.42,1.42,0,0,0-.36-.14,1.9,1.9,0,0,0-.41,0,2.48,2.48,0,0,0-.38,0,1.23,1.23,0,0,0-.34.11.73.73,0,0,0-.26.19.53.53,0,0,0-.1.32.45.45,0,0,0,.16.36,1.17,1.17,0,0,0,.38.23,2.74,2.74,0,0,0,.53.16l.59.13a6.09,6.09,0,0,1,.61.17,2,2,0,0,1,.53.26,1.22,1.22,0,0,1,.37.41,1.11,1.11,0,0,1,.14.6,1.42,1.42,0,0,1-.19.77,1.56,1.56,0,0,1-.5.49,2.11,2.11,0,0,1-.69.26,5.12,5.12,0,0,1-.77.07,3.44,3.44,0,0,1-.8-.09,1.89,1.89,0,0,1-.68-.29,1.42,1.42,0,0,1-.47-.53,1.88,1.88,0,0,1-.2-.8h.84A1,1,0,0,0,136,62.16Z"/><path class="cls-2" d="M142.21,64a5.25,5.25,0,0,1-.29.62,1.76,1.76,0,0,1-.31.42.89.89,0,0,1-.38.23,1.44,1.44,0,0,1-.49.08l-.29,0a1.28,1.28,0,0,1-.28-.07v-.76a1.23,1.23,0,0,0,.25.08l.23,0a.68.68,0,0,0,.69-.47l.34-.85-2-5h.94l1.47,4.14h0l1.42-4.14h.89Z"/><path class="cls-2" d="M174.81,23.78a4,4,0,0,1-4,4,4,4,0,1,1,0-7.94A4,4,0,0,1,174.81,23.78Zm-7.1,0a3.06,3.06,0,0,0,3.08,3.16,3.16,3.16,0,0,0,0-6.31A3.07,3.07,0,0,0,167.71,23.78Zm2.43,2.07h-.91V21.91a8.22,8.22,0,0,1,1.52-.12,2.45,2.45,0,0,1,1.37.29,1.09,1.09,0,0,1,.38.86,1,1,0,0,1-.82.92v.05a1.15,1.15,0,0,1,.73,1,2.82,2.82,0,0,0,.29,1h-1a3.29,3.29,0,0,1-.31-1c-.08-.43-.32-.62-.82-.62h-.44Zm0-2.23h.43c.51,0,.92-.17.92-.58s-.27-.6-.85-.6a1.8,1.8,0,0,0-.5,0Z"/><rect class="cls-3" width="200" height="70"/></g></g></svg>